<mxfile host="app.diagrams.net" modified="2022-10-21T17:49:00.942Z" agent="5.0 (Macintosh; Intel Mac OS X 10_15_7) AppleWebKit/605.1.15 (KHTML, like Gecko) Version/16.0 Safari/605.1.15" etag="le6QnzEqvBIu-jjMBc-D" version="20.5.0" type="github">
  <diagram id="prtHgNgQTEPvFCAcTncT" name="Page-1">
    <mxGraphModel dx="1195" dy="1108" grid="1" gridSize="10" guides="1" tooltips="1" connect="1" arrows="1" fold="1" page="1" pageScale="1" pageWidth="827" pageHeight="1169" math="0" shadow="0">
      <root>
        <mxCell id="0" />
        <mxCell id="1" parent="0" />
        <mxCell id="-jn-j5KkJefASaCqUATf-5" value="前端体系结构" style="swimlane;fillColor=#d5e8d4;strokeColor=#82b366;" vertex="1" parent="1">
          <mxGeometry x="20" y="40" width="980" height="1100" as="geometry" />
        </mxCell>
        <mxCell id="-jn-j5KkJefASaCqUATf-6" value="css" style="rounded=1;whiteSpace=wrap;html=1;fillColor=#1ba1e2;strokeColor=#006EAF;fontColor=#ffffff;" vertex="1" parent="-jn-j5KkJefASaCqUATf-5">
          <mxGeometry x="290" y="1010" width="120" height="60" as="geometry" />
        </mxCell>
        <mxCell id="-jn-j5KkJefASaCqUATf-7" value="html" style="rounded=1;whiteSpace=wrap;html=1;fillColor=#1ba1e2;strokeColor=#006EAF;fontColor=#ffffff;" vertex="1" parent="-jn-j5KkJefASaCqUATf-5">
          <mxGeometry x="430" y="1010" width="120" height="60" as="geometry" />
        </mxCell>
        <mxCell id="-jn-j5KkJefASaCqUATf-8" value="JavaScript" style="rounded=1;whiteSpace=wrap;html=1;fillColor=#1ba1e2;strokeColor=#006EAF;fontColor=#ffffff;" vertex="1" parent="-jn-j5KkJefASaCqUATf-5">
          <mxGeometry x="570" y="1010" width="120" height="60" as="geometry" />
        </mxCell>
        <mxCell id="-jn-j5KkJefASaCqUATf-9" value="" style="endArrow=none;dashed=1;html=1;rounded=0;" edge="1" parent="-jn-j5KkJefASaCqUATf-5">
          <mxGeometry width="50" height="50" relative="1" as="geometry">
            <mxPoint y="990" as="sourcePoint" />
            <mxPoint x="980" y="990" as="targetPoint" />
          </mxGeometry>
        </mxCell>
        <mxCell id="-jn-j5KkJefASaCqUATf-18" value="" style="endArrow=none;dashed=1;html=1;strokeWidth=2;rounded=0;" edge="1" parent="-jn-j5KkJefASaCqUATf-5">
          <mxGeometry width="50" height="50" relative="1" as="geometry">
            <mxPoint y="863" as="sourcePoint" />
            <mxPoint x="980" y="863" as="targetPoint" />
          </mxGeometry>
        </mxCell>
        <mxCell id="-jn-j5KkJefASaCqUATf-11" value="sass/sacc" style="rounded=1;whiteSpace=wrap;html=1;fillColor=#dae8fc;strokeColor=#6c8ebf;" vertex="1" parent="1">
          <mxGeometry x="150" y="1050" width="80" height="60" as="geometry" />
        </mxCell>
        <mxCell id="-jn-j5KkJefASaCqUATf-12" value="" style="edgeStyle=orthogonalEdgeStyle;rounded=0;orthogonalLoop=1;jettySize=auto;html=1;" edge="1" parent="1" source="-jn-j5KkJefASaCqUATf-6" target="-jn-j5KkJefASaCqUATf-11">
          <mxGeometry relative="1" as="geometry" />
        </mxCell>
        <mxCell id="-jn-j5KkJefASaCqUATf-13" value="Typescript" style="rounded=1;whiteSpace=wrap;html=1;fillColor=#dae8fc;strokeColor=#6c8ebf;" vertex="1" parent="1">
          <mxGeometry x="790" y="1050" width="80" height="60" as="geometry" />
        </mxCell>
        <mxCell id="-jn-j5KkJefASaCqUATf-14" value="" style="edgeStyle=orthogonalEdgeStyle;rounded=0;orthogonalLoop=1;jettySize=auto;html=1;" edge="1" parent="1" source="-jn-j5KkJefASaCqUATf-8" target="-jn-j5KkJefASaCqUATf-13">
          <mxGeometry relative="1" as="geometry" />
        </mxCell>
      </root>
    </mxGraphModel>
  </diagram>
</mxfile>
